<svg xmlns="http://www.w3.org/2000/svg" viewBox="0 0 157.808 21">
  <path fill="#f4ece1" d="M0 20.72V.28h11.9v2.492H2.744v6.076h8.176v2.408H2.744v6.972H11.9v2.492Zm19.04 0 5.824-10.388L19.348.28h3.164l3.024 5.824q.252.504.504 1.036.28.532.42.812.14-.28.392-.812t.504-1.036L30.408.28h3.052l-5.516 9.912 5.824 10.528h-3.136l-3.36-6.272q-.252-.504-.504-1.036-.252-.56-.392-.896-.14.336-.392.896-.252.532-.532 1.008l-3.36 6.3zm28.084.28q-2.8 0-4.424-1.624t-1.624-4.592V6.188q0-2.94 1.624-4.564T47.124 0t4.424 1.624q1.624 1.596 1.624 4.564v8.596q0 2.968-1.624 4.592T47.124 21m0-2.464q1.568 0 2.408-.896.868-.896.868-2.576V5.908q0-1.652-.84-2.548t-2.436-.896-2.436.896-.84 2.548v9.156q0 1.68.84 2.576.868.896 2.436.896"/>
  <path fill="#f1b400" d="M67.844 13.468q-1.064 0-1.736-.644-.644-.644-.644-1.652 0-1.064.644-1.736.672-.672 1.736-.672t1.708.672q.672.672.672 1.736 0 1.008-.672 1.652-.644.644-1.708.644"/>
  <path fill="#f4ece1" d="M88.676 21q-3.024 0-4.816-1.568-1.792-1.596-1.792-4.368h2.772q0 1.624 1.036 2.548t2.8.924q1.68 0 2.66-.924 1.008-.952 1.008-2.52 0-1.176-.644-2.044-.644-.896-1.82-1.204l-3.024-.812q-1.988-.56-3.164-2.016-1.148-1.484-1.148-3.5 0-1.652.728-2.884.756-1.26 2.1-1.932Q86.716 0 88.48 0q1.792 0 3.136.7 1.372.672 2.128 1.904T94.5 5.46h-2.744q0-1.344-.924-2.184-.896-.84-2.352-.84t-2.352.84q-.868.84-.868 2.184 0 1.092.588 1.848.588.728 1.652 1.036l3.108.84q2.1.56 3.276 2.156 1.176 1.568 1.176 3.752 0 1.792-.784 3.136-.784 1.316-2.24 2.044-1.428.728-3.36.728m14.616-.28V.28h3.584l6.104 17.248q-.084-.728-.168-1.792-.056-1.092-.112-2.24-.028-1.176-.028-2.212V.28h2.632v20.44h-3.612l-6.048-17.248q.056.728.112 1.792.056 1.036.084 2.184.056 1.148.056 2.156V20.72Zm19.6 0L128.184.28h3.668l5.264 20.44h-2.828L133 15.4h-5.992l-1.288 5.32zm4.676-7.616h4.872L130.984 7q-.42-1.68-.672-2.856t-.308-1.596q-.056.42-.308 1.596t-.644 2.828zm17.22 7.616V.28h6.636q1.96 0 3.388.756t2.212 2.128q.784 1.344.784 3.22 0 1.848-.784 3.22-.784 1.344-2.24 2.1-1.428.756-3.36.756h-3.864v8.26zm2.772-10.724h3.864q1.624 0 2.576-.98.952-1.008.952-2.632 0-1.652-.952-2.632-.952-1.008-2.576-1.008h-3.864z"/>
</svg>
