<svg xmlns="http://www.w3.org/2000/svg" width="140" height="32" viewBox="0 0 140 32" fill="none" role="img" aria-label="ExoSnap">
  <circle cx="16" cy="16" r="14.5" stroke="#9BD9D2" stroke-width="1.5" opacity="0.45"></circle>
  <circle cx="16" cy="16" r="6.2" stroke="#9BD9D2" stroke-width="1.6"></circle>
  <circle cx="16" cy="16" r="2.4" fill="#9BD9D2"></circle>
  <g transform="translate(48, 19.71) scale(0.95726)">
    <path d="M7.31 0.23L7.31 0.23Q5.69 0.23 4.51-0.29Q3.33-0.81 2.57-1.74Q1.82-2.68 1.46-3.86Q1.09-5.04 1.09-6.32L1.09-6.32Q1.09-7.59 1.44-8.80Q1.79-10.01 2.52-10.97Q3.25-11.93 4.39-12.49Q5.54-13.05 7.10-13.05L7.10-13.05Q8.58-13.05 9.69-12.55Q10.79-12.04 11.52-11.14Q12.25-10.24 12.60-9.10Q12.95-7.96 12.95-6.66L12.95-6.66Q12.95-6.47 12.94-6.14Q12.92-5.80 12.87-5.46L12.87-5.46L3.98-5.46Q4.08-3.93 5.02-3.12Q5.95-2.31 7.41-2.31L7.41-2.31Q8.48-2.31 9.36-2.65Q10.24-2.99 10.97-3.72L10.97-3.72L12.56-1.79Q11.75-1.07 10.95-0.62Q10.14-0.18 9.27 0.03Q8.40 0.23 7.31 0.23ZM3.93-7.59L10.19-7.59Q10.19-7.67 10.19-7.75L10.19-7.75Q10.19-8.32 10.00-8.84Q9.80-9.36 9.41-9.76Q9.02-10.17 8.45-10.41Q7.88-10.66 7.15-10.66L7.15-10.66Q6.14-10.66 5.45-10.22Q4.76-9.78 4.38-9.09Q4.00-8.40 3.93-7.59L3.93-7.59ZM17.28 0L13.87 0L18.32-6.45L13.87-12.82L17.33-12.82L20.24-8.37L23.21-12.82L26.61-12.82L22.14-6.45L26.61 0L23.16 0L20.24-4.52L17.28 0ZM33.55 0.23L33.55 0.23Q31.73 0.23 30.27-0.62Q28.81-1.48 28.00-2.99Q27.18-4.50 27.18-6.42L27.18-6.42Q27.18-8.35 28.00-9.85Q28.81-11.36 30.26-12.21Q31.70-13.05 33.55-13.05L33.55-13.05Q35.42-13.05 36.84-12.21Q38.25-11.36 39.08-9.85Q39.92-8.35 39.92-6.42L39.92-6.42Q39.92-4.50 39.10-2.99Q38.28-1.48 36.84-0.62Q35.39 0.23 33.55 0.23ZM33.57-2.31L33.57-2.31Q34.64-2.31 35.42-2.81Q36.20-3.30 36.61-4.24Q37.03-5.17 37.03-6.42L37.03-6.42Q37.03-7.70 36.61-8.62Q36.20-9.54 35.42-10.04Q34.64-10.53 33.57-10.53L33.57-10.53Q32.45-10.53 31.67-10.02Q30.89-9.52 30.48-8.61Q30.06-7.70 30.06-6.42L30.06-6.42Q30.06-5.17 30.48-4.24Q30.89-3.30 31.67-2.81Q32.45-2.31 33.57-2.31Z" fill="#F1F1EF"></path>
    <path d="M46.67 0.23L46.67 0.23Q45.29 0.23 44.22-0.17Q43.16-0.57 42.43-1.20Q41.70-1.82 41.23-2.44L41.23-2.44L43.21-4.16Q43.70-3.35 44.57-2.73Q45.44-2.11 46.69-2.11L46.69-2.11Q47.73-2.11 48.34-2.55Q48.95-2.99 48.95-3.64L48.95-3.64Q48.95-4.21 48.56-4.54Q48.17-4.86 47.55-5.10Q46.93-5.33 46.17-5.51L46.17-5.51Q45.44-5.69 44.69-5.97Q43.94-6.24 43.30-6.66Q42.66-7.07 42.27-7.72Q41.88-8.37 41.88-9.33L41.88-9.33Q41.88-11.02 43.18-12.04Q44.48-13.05 46.59-13.05L46.59-13.05Q48.10-13.05 49.34-12.45Q50.59-11.86 51.29-10.66L51.29-10.66L49.50-9.28Q48.98-10.06 48.20-10.45Q47.42-10.84 46.51-10.84L46.51-10.84Q45.68-10.84 45.12-10.50Q44.56-10.17 44.56-9.62L44.56-9.62Q44.56-9.20 44.82-8.94Q45.08-8.68 45.63-8.48Q46.17-8.27 47.00-8.06L47.00-8.06Q47.78-7.88 48.62-7.62Q49.45-7.36 50.16-6.93Q50.88-6.50 51.33-5.79Q51.79-5.07 51.79-3.95L51.79-3.95Q51.79-2.70 51.15-1.76Q50.51-0.81 49.36-0.29Q48.20 0.23 46.67 0.23ZM57.03 0L54.14 0L54.14-12.82L57.03-12.82L57.03-11.05Q57.24-11.39 57.50-11.67L57.50-11.67Q58.15-12.38 59.02-12.71Q59.89-13.05 60.85-13.05L60.85-13.05Q63.01-13.05 64.22-11.82Q65.43-10.58 65.43-8.29L65.43-8.29L65.43 0L62.54 0L62.54-7.23Q62.54-8.94 61.92-9.75Q61.29-10.56 59.99-10.56L59.99-10.56Q59.03-10.56 58.37-10.10Q57.71-9.65 57.37-8.68Q57.03-7.72 57.03-6.24L57.03-6.24L57.03 0ZM79.20 0L76.55 0L76.36-1.77Q76.31-1.69 76.23-1.59L76.23-1.59Q75.56-0.68 74.62-0.22Q73.69 0.23 72.57 0.23L72.57 0.23Q71.14 0.23 70.03-0.29Q68.93-0.81 68.32-1.74Q67.71-2.68 67.71-3.93L67.71-3.93Q67.71-4.99 68.16-5.77Q68.62-6.55 69.34-6.99L69.34-6.99Q69.97-7.38 70.80-7.55Q71.63-7.72 72.54-7.72L72.54-7.72L76.34-7.72L76.34-8.09Q76.34-9.33 75.58-9.97Q74.83-10.61 73.48-10.61L73.48-10.61Q72.44-10.61 71.44-10.21Q70.44-9.80 69.60-8.97L69.60-8.97L67.99-10.87Q69.24-12.04 70.64-12.55Q72.05-13.05 73.71-13.05L73.71-13.05Q76.31-13.05 77.75-11.74Q79.20-10.43 79.20-8.09L79.20-8.09L79.20 0ZM76.34-5.30L76.34-5.56L72.96-5.56Q72.49-5.56 72.02-5.47Q71.55-5.38 71.19-5.15L71.19-5.15Q70.93-4.94 70.76-4.63Q70.59-4.32 70.59-3.90L70.59-3.90Q70.59-3.07 71.23-2.59Q71.87-2.11 72.93-2.11L72.93-2.11Q73.87-2.11 74.63-2.52Q75.40-2.94 75.87-3.67Q76.34-4.39 76.34-5.30L76.34-5.30ZM84.88 5.30L82.02 5.30L82.02-12.82L84.88-12.82L84.88-11.10Q85.01-11.31 85.17-11.47L85.17-11.47Q85.82-12.30 86.74-12.68Q87.66-13.05 88.70-13.05L88.70-13.05Q90.42-13.05 91.67-12.18Q92.92-11.31 93.60-9.80Q94.29-8.29 94.29-6.40L94.29-6.40Q94.29-4.34 93.54-2.85Q92.79-1.35 91.52-0.56Q90.26 0.23 88.70 0.23L88.70 0.23Q87.61 0.23 86.69-0.18Q85.77-0.60 85.12-1.43L85.12-1.43Q85.01-1.59 84.88-1.77L84.88-1.77L84.88 5.30ZM88.00-2.39L88.00-2.39Q89.02-2.39 89.78-2.89Q90.55-3.38 90.97-4.29Q91.38-5.20 91.38-6.40L91.38-6.40Q91.38-7.59 90.97-8.50Q90.55-9.41 89.78-9.91Q89.02-10.40 88.00-10.40L88.00-10.40Q86.99-10.40 86.22-9.91Q85.45-9.41 85.04-8.50Q84.62-7.59 84.62-6.40L84.62-6.40Q84.62-5.20 85.04-4.30Q85.45-3.41 86.22-2.90Q86.99-2.39 88.00-2.39Z" fill="#9BD9D2"></path>
  </g>
</svg>